<svg xmlns="http://www.w3.org/2000/svg" viewBox="0 0 120 72.71"><defs><style>.cls-1{opacity:0.9;}.cls-2{fill:#010101;}</style></defs><title>Asset 8</title><g id="Layer_2" data-name="Layer 2"><g id="Layer_1-2" data-name="Layer 1"><g class="cls-1"><path class="cls-2" d="M119.88,21.42c-.19-.62-.82-1.68-2.84-2l-9.15-1.22a7,7,0,0,1-4.67-3.4l-4-8.32c-.88-1.83-2.08-2.11-2.73-2.11s-1.85.28-2.72,2.11l-4,8.32a5.6,5.6,0,0,1-1.4,1.74c3.75,4.43,11.29,11.92,21.9,15.47,1.75-1.36,3.47-2.77,5.1-4.19l3.36-3.2C120.19,23.27,120.08,22,119.88,21.42Z"/><path class="cls-2" d="M108.36,33.53c-10.51-3.9-18-11.39-21.67-15.81a5.41,5.41,0,0,1-1.59.53L76,19.47c-2,.27-2.65,1.33-2.85,2s-.31,1.85,1.15,3.25L81,31a7,7,0,0,1,1.78,5.48l-1.66,9.09c0,.23-.06.44-.08.65a22.31,22.31,0,0,1-7.49,1.27A21.73,21.73,0,1,1,85.5,7.7l.39.26,1.2-2.4.24-.48.4-.8a25.84,25.84,0,0,0-40.08,21l0,0v.58A21.81,21.81,0,1,1,37.86,7.7l.61.4L40.3,4.42l0,0a25.86,25.86,0,1,0,9.4,31.53h0a25.9,25.9,0,0,0,34.4,13.41s.54-.24.91-.43a24.58,24.58,0,0,0,3.68-2.24A229.43,229.43,0,0,0,108.36,33.53Z"/><path class="cls-2" d="M110.26,36.52a5.2,5.2,0,0,1,0-1.53q-4.34,3.3-9.59,6.82c-1.08.72-2.13,1.41-3.15,2.06a5.79,5.79,0,0,1,1.87.56l8.13,4.39a4.13,4.13,0,0,0,2,.56,2.42,2.42,0,0,0,1.9-.86,3.35,3.35,0,0,0,.55-2.91Z"/><path class="cls-2" d="M17.24,70.71a7.08,7.08,0,0,1-5.1,2c-5,0-7.09-3.43-7.11-6.92a6.76,6.76,0,0,1,7.11-7.07,6.92,6.92,0,0,1,4.93,2.05l-1.69,1.62a4.61,4.61,0,0,0-3.24-1.26,4.4,4.4,0,0,0-4.61,4.66,4.29,4.29,0,0,0,4.61,4.54A5,5,0,0,0,15.52,69Z"/><path class="cls-2" d="M27.8,72.42V67H21.21v5.43H18.68V59h2.53v5.66H27.8V59h2.52V72.42Z"/><path class="cls-2" d="M45.88,65.77c0,3.47-2.17,6.94-6.88,6.94s-6.9-3.4-6.9-6.92,2.26-7.07,6.9-7.07A6.66,6.66,0,0,1,45.88,65.77Zm-11.29.06c.06,2.2,1.25,4.56,4.41,4.56s4.35-2.38,4.39-4.58S42.16,61,39,61,34.53,63.56,34.59,65.83Z"/><path class="cls-2" d="M59.57,70.71a7.09,7.09,0,0,1-5.1,2c-5,0-7.09-3.43-7.11-6.92a6.75,6.75,0,0,1,7.11-7.07,6.91,6.91,0,0,1,4.92,2.05l-1.68,1.62a4.61,4.61,0,0,0-3.24-1.26,4.4,4.4,0,0,0-4.62,4.66,4.3,4.3,0,0,0,4.62,4.54A4.93,4.93,0,0,0,57.84,69Z"/><path class="cls-2" d="M74.17,65.77c0,3.47-2.16,6.94-6.88,6.94s-6.9-3.4-6.9-6.92,2.26-7.07,6.9-7.07A6.66,6.66,0,0,1,74.17,65.77Zm-11.29.06c.06,2.2,1.25,4.56,4.41,4.56s4.35-2.38,4.39-4.58S70.45,61,67.29,61,62.83,63.56,62.88,65.83Z"/><path class="cls-2" d="M87.4,70.54a6.92,6.92,0,0,1-4.89,2,6.5,6.5,0,0,1-6.9-6.78,6.56,6.56,0,0,1,6.9-6.94,6.92,6.92,0,0,1,4.89,2l-.71.62a5.89,5.89,0,0,0-4.18-1.71,5.59,5.59,0,0,0-5.9,6,5.6,5.6,0,0,0,5.9,5.86,6,6,0,0,0,4.2-1.7Z"/><path class="cls-2" d="M100.52,72.4H99.16l-4.64-5.08H90.86V72.4h-1V59h5.9a4.15,4.15,0,0,1,4.41,4.18c0,2.19-1.42,4.1-4.35,4.1Zm-9.66-6.06h4.75C98,66.34,99,65,99,63.14a3.1,3.1,0,0,0-3.28-3.2H90.86Z"/><path class="cls-2" d="M114,60.48l-5.14,7.86h-.34l-5.17-7.86V72.4h-1V59h1.23l5.13,7.82L113.7,59H115V72.4h-1Z"/></g></g></g></svg>